0
SECTION
2
HEADER
9
$INSUNITS
70
4
9
$ACADVER
1
AC1014
9
$HANDSEED
5
FFFF
0
ENDSEC
0
SECTION
2
TABLES
0
TABLE
2
VPORT
5
8
100
AcDbSymbolTable
0
ENDTAB
0
TABLE
2
LTYPE
5
5
100
AcDbSymbolTable
0
LTYPE
5
14
100
AcDbSymbolTableRecord
100
AcDbLinetypeTableRecord
2
BYBLOCK
70
0
0
LTYPE
5
15
100
AcDbSymbolTableRecord
100
AcDbLinetypeTableRecord
2
BYLAYER
70
0
0
LTYPE
5
16
100
AcDbSymbolTableRecord
100
AcDbLinetypeTableRecord
2
DASHED
70
0
3
Dashed __ __ __ __ __ __ __ __ __ __ __ __ __ _
72
65
73
2
40
0.75
49
0.5
74
0
49
-0.25
74
0
0
ENDTAB
0
TABLE
2
LAYER
5
2
100
AcDbSymbolTable
70
2
0
LAYER
5
50
100
AcDbSymbolTableRecord
100
AcDbLayerTableRecord
2
0
70
0
62
7
6
CONTINUOUS
0
ENDTAB
0
TABLE
2
STYLE
5
3
100
AcDbSymbolTable
70
1
0
STYLE
5
11
100
AcDbSymbolTableRecord
100
AcDbTextStyleTableRecord
2
STANDARD
70
0
0
ENDTAB
0
TABLE
2
VIEW
5
6
100
AcDbSymbolTable
70
0
0
ENDTAB
0
TABLE
2
UCS
5
7
100
AcDbSymbolTable
70
0
0
ENDTAB
0
TABLE
2
APPID
5
9
100
AcDbSymbolTable
70
2
0
APPID
5
12
100
AcDbSymbolTableRecord
100
AcDbRegAppTableRecord
2
ACAD
70
0
0
ENDTAB
0
TABLE
2
DIMSTYLE
5
A
100
AcDbSymbolTable
70
1
0
ENDTAB
0
TABLE
2
BLOCK_RECORD
5
1
100
AcDbSymbolTable
70
1
0
BLOCK_RECORD
5
1F
100
AcDbSymbolTableRecord
100
AcDbBlockTableRecord
2
*MODEL_SPACE
0
BLOCK_RECORD
5
1B
100
AcDbSymbolTableRecord
100
AcDbBlockTableRecord
2
*PAPER_SPACE
0
ENDTAB
0
ENDSEC
0
SECTION
2
BLOCKS
0
BLOCK
5
20
100
AcDbEntity
100
AcDbBlockBegin
2
*MODEL_SPACE
0
ENDBLK
5
21
100
AcDbEntity
100
AcDbBlockEnd
0
BLOCK
5
1C
100
AcDbEntity
100
AcDbBlockBegin
2
*PAPER_SPACE
0
ENDBLK
5
1D
100
AcDbEntity
100
AcDbBlockEnd
0
ENDSEC
0
SECTION
2
ENTITIES
0
POINT
5
100
100
AcDbEntity
8
0
100
AcDbPoint
10
127.00000000000001
20
35.000000000000014
30
0
0
POINT
5
101
100
AcDbEntity
8
0
100
AcDbPoint
10
72.5
20
45.000000000000014
30
0
0
POINT
5
102
100
AcDbEntity
8
0
100
AcDbPoint
10
103.5
20
29.000000000000021
30
0
0
LINE
5
103
100
AcDbEntity
8
0
100
AcDbLine
10
136
20
75.000000000000014
30
0
11
3.9999999999999858
21
75.000000000000014
31
0
0
LINE
5
104
100
AcDbEntity
8
0
100
AcDbLine
10
3.9999999999999858
20
75.000000000000014
30
0
11
3.9999999999999858
21
67.000000000000014
31
0
0
LINE
5
105
100
AcDbEntity
8
0
100
AcDbLine
10
3.9999999999999858
20
67.000000000000014
30
0
11
4.9999999999999858
21
67.000000000000014
31
0
0
LINE
5
106
100
AcDbEntity
8
0
100
AcDbLine
10
4.9999999999999858
20
67.000000000000014
30
0
11
4.9999999999999858
21
70.000000000000014
31
0
0
LINE
5
107
100
AcDbEntity
8
0
100
AcDbLine
10
4.9999999999999858
20
70.000000000000014
30
0
11
6.4999999999999858
21
70.000000000000014
31
0
0
LINE
5
108
100
AcDbEntity
8
0
100
AcDbLine
10
6.4999999999999858
20
70.000000000000014
30
0
11
6.4999999999999858
21
2.9999999999999982
31
0
0
LINE
5
109
100
AcDbEntity
8
0
100
AcDbLine
10
6.4999999999999858
20
2.9999999999999982
30
0
11
16.499999999999986
21
3.0000000000000004
31
0
0
LINE
5
110
100
AcDbEntity
8
0
100
AcDbLine
10
16.499999999999986
20
3.0000000000000004
30
0
11
16.499999999999986
21
1.0000000000000004
31
0
0
LINE
5
111
100
AcDbEntity
8
0
100
AcDbLine
10
16.499999999999986
20
1.0000000000000004
30
0
11
36.499999999999986
21
1.0000000000000004
31
0
0
LINE
5
112
100
AcDbEntity
8
0
100
AcDbLine
10
36.499999999999986
20
1.0000000000000004
30
0
11
36.499999999999986
21
3.0000000000000004
31
0
0
LINE
5
113
100
AcDbEntity
8
0
100
AcDbLine
10
36.499999999999986
20
3.0000000000000004
30
0
11
59.999999999999993
21
3.0000000000000004
31
0
0
LINE
5
114
100
AcDbEntity
8
0
100
AcDbLine
10
59.999999999999993
20
3.0000000000000004
30
0
11
59.999999999999993
21
1.0000000000000004
31
0
0
LINE
5
115
100
AcDbEntity
8
0
100
AcDbLine
10
59.999999999999993
20
1.0000000000000004
30
0
11
79.999999999999986
21
1.0000000000000004
31
0
0
LINE
5
116
100
AcDbEntity
8
0
100
AcDbLine
10
79.999999999999986
20
1.0000000000000004
30
0
11
79.999999999999986
21
3.0000000000000004
31
0
0
LINE
5
117
100
AcDbEntity
8
0
100
AcDbLine
10
103.5
20
3.0000000000000004
30
0
11
103.5
21
1.0000000000000004
31
0
0
LINE
5
118
100
AcDbEntity
8
0
100
AcDbLine
10
103.5
20
1.0000000000000004
30
0
11
123.5
21
1.0000000000000004
31
0
0
LINE
5
119
100
AcDbEntity
8
0
100
AcDbLine
10
123.5
20
1.0000000000000004
30
0
11
123.5
21
3.0000000000000004
31
0
0
LINE
5
120
100
AcDbEntity
8
0
100
AcDbLine
10
123.5
20
3.0000000000000004
30
0
11
133.5
21
2.9999999999999982
31
0
0
LINE
5
121
100
AcDbEntity
8
0
100
AcDbLine
10
133.5
20
2.9999999999999982
30
0
11
133.5
21
70.000000000000014
31
0
0
LINE
5
122
100
AcDbEntity
8
0
100
AcDbLine
10
133.5
20
70.000000000000014
30
0
11
135
21
70.000000000000014
31
0
0
LINE
5
123
100
AcDbEntity
8
0
100
AcDbLine
10
135
20
70.000000000000014
30
0
11
135
21
67.000000000000014
31
0
0
LINE
5
124
100
AcDbEntity
8
0
100
AcDbLine
10
135
20
67.000000000000014
30
0
11
136
21
67.000000000000014
31
0
0
LINE
5
125
100
AcDbEntity
8
0
100
AcDbLine
10
136
20
67.000000000000014
30
0
11
136
21
75.000000000000014
31
0
0
LINE
5
126
100
AcDbEntity
8
0
100
AcDbLine
10
6.4999999999999858
20
2.9999999999999982
30
0
11
6.4999999999999858
21
70.000000000000014
31
0
0
LINE
5
127
100
AcDbEntity
8
0
100
AcDbLine
10
103.5
20
3.0000000000000004
30
0
11
79.999999999999986
21
3.0000000000000004
31
0
0
LWPOLYLINE
5
128
100
AcDbEntity
8
0
100
AcDbPolyline
90
4
70
1
43
0.0
10
36.499999999999986
20
55.000000000000014
10
37.999999999999986
20
55.000000000000014
10
37.999999999999986
20
50.000000000000014
10
36.499999999999986
20
50.000000000000014
0
LWPOLYLINE
5
129
100
AcDbEntity
8
0
100
AcDbPolyline
90
4
70
1
43
0.0
10
36.499999999999986
20
38.000000000000014
10
37.999999999999986
20
38.000000000000014
10
37.999999999999986
20
33.000000000000014
10
36.499999999999986
20
33.000000000000014
0
LWPOLYLINE
5
130
100
AcDbEntity
8
0
100
AcDbPolyline
90
4
70
1
43
0.0
10
47.899999999999991
20
55.000000000000014
10
49.399999999999991
20
55.000000000000014
10
49.399999999999991
20
50.000000000000014
10
47.899999999999991
20
50.000000000000014
0
LWPOLYLINE
5
131
100
AcDbEntity
8
0
100
AcDbPolyline
90
4
70
1
43
0.0
10
47.899999999999991
20
38.000000000000014
10
49.399999999999991
20
38.000000000000014
10
49.399999999999991
20
33.000000000000014
10
47.899999999999991
20
33.000000000000014
0
LWPOLYLINE
5
132
100
AcDbEntity
8
0
100
AcDbPolyline
90
4
70
1
43
0.0
10
125.01694679849486
20
31.699999999999985
10
128.98305320150516
20
31.699999999999985
42
0.56574145408933307
10
128.98305320150527
20
38.299999999999983
10
125.01694679849476
20
38.299999999999983
42
0.56574145408933307
0
LWPOLYLINE
5
133
100
AcDbEntity
8
0
100
AcDbPolyline
90
4
70
1
43
0.0
10
73.25
20
42.500000000000014
10
71.75
20
42.500000000000014
10
71.75
20
47.500000000000014
10
73.25
20
47.500000000000014
0
LWPOLYLINE
5
134
100
AcDbEntity
8
0
100
AcDbPolyline
90
4
70
1
43
0.0
10
104.24999999999999
20
26.500000000000021
10
102.75
20
26.500000000000021
10
102.75
20
31.500000000000021
10
104.24999999999999
20
31.500000000000021
0
ENDSEC
0
SECTION
2
OBJECTS
0
DICTIONARY
5
C
100
AcDbDictionary
3
ACAD_GROUP
350
D
3
ACAD_MLINESTYLE
350
17
0
DICTIONARY
5
D
100
AcDbDictionary
0
DICTIONARY
5
1A
330
C
100
AcDbDictionary
0
DICTIONARY
5
17
100
AcDbDictionary
0
ENDSEC
0
EOF
